<?xml version="1.0" standalone="no"?>
<!DOCTYPE svg PUBLIC "-//W3C//DTD SVG 20010904//EN"
 "http://www.w3.org/TR/2001/REC-SVG-20010904/DTD/svg10.dtd">
<svg version="1.0" xmlns="http://www.w3.org/2000/svg"
 width="1576.000000pt" height="998.000000pt" viewBox="0 0 1576.000000 998.000000"
 preserveAspectRatio="xMidYMid meet">

<g transform="translate(0.000000,998.000000) scale(0.100000,-0.100000)"
fill="#000000" stroke="none">
<path d="M0 7461 l0 -2520 38 5 c40 4 35 0 -10 -10 l-28 -6 0 -2465 0 -2465
7880 0 7880 0 -2 2446 -3 2447 -100 23 c-112 27 -130 33 -124 39 3 2 53 -7
113 -20 60 -14 110 -25 112 -25 2 0 4 1141 4 2535 l0 2535 -7880 0 -7880 0 0
-2519z m4903 2392 c-34 -2 -93 -2 -130 0 -37 2 -9 3 62 3 72 0 102 -1 68 -3z
m-222 -20 c-5 -10 -56 -63 -112 -118 l-102 -100 108 118 c60 64 110 117 112
117 2 0 -1 -8 -6 -17z m-202 -40 c-212 -234 -352 -382 -348 -366 4 12 361 393
368 393 3 0 -6 -12 -20 -27z m-47 -220 c-16 -21 -40 -47 -53 -58 -24 -19 -23
-19 1 10 68 82 109 119 52 48z m7033 -73 c21 -22 37 -40 34 -40 -3 0 -23 18
-44 40 -21 22 -37 40 -34 40 3 0 23 -18 44 -40z m-7145 -43 c0 -2 -10 -12 -22
-23 l-23 -19 19 23 c18 21 26 27 26 19z m-4 -359 l29 -33 -32 29 c-31 28 -38
36 -30 36 2 0 16 -15 33 -32z m-3551 16 c14 -6 13 -8 -6 -18 -69 -35 -56 -35
1196 -36 l1226 0 21 22 c13 15 18 17 15 7 -3 -9 0 -22 6 -28 8 -8 -76 -11
-324 -12 -2211 -4 -2566 -3 -2551 6 9 5 88 9 174 8 87 -1 160 2 163 7 5 9 -3
12 -65 27 -32 7 -29 8 35 14 39 3 75 6 82 7 6 1 19 -1 28 -4z m80 -15 c11 -17
-1 -21 -15 -4 -8 9 -8 15 -2 15 6 0 14 -5 17 -11z m14193 -9 c24 -12 69 -22
127 -27 l90 -8 -130 -3 c-101 -2 -132 0 -140 11 -5 8 -27 19 -47 26 -21 7 -38
14 -38 17 0 13 106 1 138 -16z m-740 -37 c-152 -2 -404 -2 -560 0 -156 1 -31
2 277 2 308 0 435 -1 283 -2z m-10296 -247 c8 -15 5 -24 -16 -45 l-26 -26 0
50 c0 50 -1 52 -81 130 -44 44 -90 94 -101 110 -12 17 32 -22 96 -85 65 -63
122 -123 128 -134z m7308 241 c0 -2 -19 -21 -42 -42 l-43 -40 40 43 c36 39 45
47 45 39z m550 -10 c0 -1 -44 -45 -97 -97 -55 -54 -76 -71 -49 -40 57 65 146
149 146 137z m-8470 -48 c0 -6 -4 -7 -10 -4 -5 3 -10 11 -10 16 0 6 5 7 10 4
6 -3 10 -11 10 -16z m78 3 c2 -7 -2 -10 -12 -6 -9 3 -16 11 -16 16 0 13 23 5
28 -10z m943 1 c13 -16 12 -17 -3 -4 -10 7 -18 15 -18 17 0 8 8 3 21 -13z
m7809 1 c0 -2 -9 -4 -21 -4 -11 0 -18 4 -14 10 5 8 35 3 35 -6z m-11540 -4 c0
-5 -4 -10 -10 -10 -5 0 -10 5 -10 10 0 6 5 10 10 10 6 0 10 -4 10 -10z m75 0
c-3 -5 -13 -10 -21 -10 -8 0 -14 5 -14 10 0 6 9 10 21 10 11 0 17 -4 14 -10z
m5460 -20 c55 -4 -318 -6 -830 -6 -685 1 -810 2 -475 6 604 7 1181 7 1305 0z
m4520 1 c79 -5 -82 -8 -410 -7 -297 0 -490 3 -430 6 157 9 687 9 840 1z
m-4297 -8 c-15 -2 -42 -2 -60 0 -18 2 -6 4 27 4 33 0 48 -2 33 -4z m452 -5 c0
-12 -372 -10 -390 2 -10 7 50 10 188 8 111 -1 202 -6 202 -10z m2823 5 c-29
-2 -78 -2 -110 0 -32 2 -8 3 52 3 61 0 87 -1 58 -3z m1415 0 c-49 -2 -127 -2
-175 0 -49 1 -9 3 87 3 96 0 136 -2 88 -3z m-9565 -20 c-34 -2 -93 -2 -130 0
-37 2 -9 3 62 3 72 0 102 -1 68 -3z m235 0 c-26 -2 -71 -2 -100 0 -29 2 -8 3
47 3 55 0 79 -1 53 -3z m1992 -80 l85 -86 -78 69 c-66 58 -108 104 -95 104 2
0 42 -39 88 -87z m8213 80 c-7 -2 -21 -2 -30 0 -10 3 -4 5 12 5 17 0 24 -2 18
-5z m2090 0 c-35 -2 -91 -2 -125 0 -35 2 -7 3 62 3 69 0 97 -1 63 -3z m-2199
-64 c-15 -15 -31 -26 -36 -22 -6 3 -27 -12 -49 -33 -21 -21 -39 -35 -39 -30 0
4 33 38 73 76 49 46 73 63 75 53 2 -8 -9 -28 -24 -44z m-5825 -88 c-35 -56
-53 -71 -22 -18 36 59 47 76 51 73 1 -2 -12 -27 -29 -55z m-299 -7 c0 -31 -23
-28 -28 4 -2 15 2 22 12 22 11 0 16 -9 16 -26z m4108 9 c-5 -25 -28 -28 -28
-4 0 12 6 21 16 21 9 0 14 -7 12 -17z m-4338 -39 c0 -8 -4 -14 -9 -14 -11 0
-22 26 -14 34 9 9 23 -3 23 -20z m4550 5 c0 -24 -23 -21 -28 4 -2 10 3 17 12
17 10 0 16 -9 16 -21z m-4720 -20 c0 -20 -15 -26 -25 -9 -9 15 3 43 15 35 5
-3 10 -15 10 -26z m4920 1 c-6 -11 -12 -20 -13 -20 -2 0 -3 9 -3 20 0 11 6 20
13 20 11 0 11 -5 3 -20z m-5130 -19 c7 -14 7 -22 -1 -27 -12 -7 -29 12 -29 34
0 19 18 14 30 -7z m5330 5 c0 -18 -16 -29 -30 -21 -13 8 -1 35 16 35 8 0 14
-6 14 -14z m-10343 -113 c-3 -10 -5 -2 -5 17 0 19 2 27 5 18 2 -10 2 -26 0
-35z m3720 -215 c-1 -46 -3 -11 -3 77 0 88 2 125 3 83 2 -42 2 -114 0 -160z
m-3620 -155 c-1 -65 -3 -14 -3 112 0 127 2 180 3 118 2 -62 2 -165 0 -230z
m4563 270 c-1 -5 -12 -21 -26 -38 -23 -27 -24 -27 -14 -5 20 40 41 62 40 43z
m10617 -40 c-3 -10 -5 -4 -5 12 0 17 2 24 5 18 2 -7 2 -21 0 -30z m110 -360
c-1 -54 -3 -12 -3 92 0 105 2 149 3 98 2 -51 2 -136 0 -190z m-10827 237 c-6
-11 -13 -20 -16 -20 -2 0 0 9 6 20 6 11 13 20 16 20 2 0 0 -9 -6 -20z m6958
-1467 c-1 -841 -5 -1371 -9 -1218 -3 149 -7 585 -8 970 -1 436 -5 694 -11 685
-5 -8 -11 -12 -13 -10 -8 9 -11 249 -8 550 2 176 7 277 11 250 4 -25 6 -94 3
-155 -2 -60 0 -130 5 -155 9 -42 10 -38 11 45 2 164 14 525 18 525 1 0 2 -669
1 -1487z m-7648 1237 c0 -93 -4 -150 -10 -150 -6 0 -10 51 -10 134 0 121 4
166 16 166 2 0 4 -67 4 -150z m-45 -1470 c-4 -795 -8 -1447 -11 -1449 -2 -2
-3 670 -3 1495 1 964 5 1481 11 1449 5 -31 7 -611 3 -1495z m555 1390 c-12
-23 -24 -40 -26 -37 -3 3 5 23 18 45 30 53 36 46 8 -8z m-4283 -67 c-2 -16 -4
-3 -4 27 0 30 2 43 4 28 2 -16 2 -40 0 -55z m4168 -128 c-32 -52 -60 -95 -62
-95 -3 0 5 17 17 38 13 20 38 65 58 100 19 35 37 61 40 58 2 -3 -21 -48 -53
-101z m-125 -214 c-11 -22 -25 -43 -31 -47 -11 -7 1 21 29 64 23 35 24 26 2
-17z m-70 -118 c-33 -59 -63 -99 -40 -53 24 48 62 110 67 110 3 0 -10 -26 -27
-57z m-106 -182 c-26 -45 -52 -85 -57 -88 -5 -3 2 14 17 38 15 24 38 65 53 92
14 26 28 45 30 43 3 -2 -17 -41 -43 -85z m11313 -1299 c-1 -97 -2 -15 -2 183
0 198 1 278 2 177 2 -101 2 -263 0 -360z m-15180 41 c-2 -37 -3 -9 -3 62 0 72
1 102 3 68 2 -34 2 -93 0 -130z m0 -190 c-3 -10 -5 -4 -5 12 0 17 2 24 5 18 2
-7 2 -21 0 -30z m15180 -160 c-2 -16 -4 -5 -4 22 0 28 2 40 4 28 2 -13 2 -35
0 -50z m-15180 35 c-3 -8 -6 -5 -6 6 -1 11 2 17 5 13 3 -3 4 -12 1 -19z
m15180 -175 c-3 -10 -5 -4 -5 12 0 17 2 24 5 18 2 -7 2 -21 0 -30z m-3760
-470 c-1 -43 -3 -10 -3 72 0 83 2 118 3 78 2 -40 2 -107 0 -150z m-7696 -468
c1 -236 4 -440 6 -452 3 -12 10 -21 17 -20 7 1 12 -21 14 -63 2 -52 1 -63 -9
-52 -7 6 -15 12 -18 12 -10 0 -11 -202 -2 -260 5 -30 9 -43 10 -28 0 15 6 30
11 33 6 4 10 -27 10 -85 l0 -92 27 7 c15 3 52 11 83 16 30 6 64 12 75 15 11 2
2 -4 -20 -14 l-40 -19 80 -6 c44 -3 118 -4 165 -2 47 2 236 5 420 6 184 2 311
4 283 6 -29 2 -53 8 -53 13 0 5 -12 16 -27 24 -25 13 0 14 232 11 143 -2 293
-7 334 -10 48 -4 77 -3 84 4 8 8 388 10 1316 9 749 -1 1246 -5 1166 -10 -77
-4 -167 -7 -199 -7 -38 0 -62 -4 -67 -13 -7 -10 -9 -10 -9 0 0 7 -15 12 -41
12 -33 0 -40 -3 -37 -17 3 -14 14 -18 53 -19 653 -18 1113 -15 1099 7 -3 5
-18 9 -33 9 -15 0 -32 5 -38 11 -7 7 -40 15 -75 19 -35 4 205 7 532 7 327 0
582 -3 565 -7 -16 -4 -69 -8 -117 -9 -49 0 -88 -5 -88 -10 0 -5 -10 -12 -22
-15 -13 -2 51 -2 142 1 154 5 290 -7 290 -26 0 -3 -118 -6 -263 -5 -229 1
-267 3 -305 19 -25 10 -47 14 -50 9 -8 -10 -78 -18 -174 -18 -38 0 -68 -4 -68
-8 0 -4 -656 -8 -1457 -8 -802 0 -1989 -2 -2638 -3 l-1180 -2 3 734 c1 404 4
732 6 730 3 -2 5 -197 7 -434z m7699 -365 l0 -660 -402 0 c-221 0 -399 2 -397
5 3 2 70 7 150 10 79 3 154 8 167 11 12 2 51 -1 85 -7 66 -12 201 -4 192 11
-3 5 -19 11 -36 15 -17 4 -29 9 -26 11 2 2 46 -5 97 -16 52 -11 100 -20 107
-20 11 0 13 86 15 458 1 251 4 409 7 350 10 -181 21 -132 21 94 0 199 8 398
16 398 2 0 4 -297 4 -660z m-11423 528 c-3 -7 -5 -2 -5 12 0 14 2 19 5 13 2
-7 2 -19 0 -25z m3752 -472 c-9 -8 -10 6 -5 59 3 39 7 90 8 115 1 25 4 -2 5
-59 3 -70 0 -108 -8 -115z m1799 -143 c-10 -2 -28 -2 -40 0 -13 2 -5 4 17 4
22 1 32 -1 23 -4z m205 0 c-7 -2 -19 -2 -25 0 -7 3 -2 5 12 5 14 0 19 -2 13
-5z m135 0 c-15 -2 -42 -2 -60 0 -18 2 -6 4 27 4 33 0 48 -2 33 -4z m102 -3
c24 -8 24 -8 -5 -9 -16 0 -37 4 -45 9 -12 8 -11 10 5 9 11 -1 31 -5 45 -9z
m273 -7 c-62 -4 -89 -22 -35 -24 15 0 21 -3 14 -6 -20 -8 -59 5 -66 22 -4 13
7 15 72 13 76 -2 77 -2 15 -5z m345 0 c-42 -2 -114 -2 -160 0 -46 1 -11 3 77
3 88 0 125 -2 83 -3z m1222 -3 c-8 -5 -139 -10 -300 -10 -157 -1 -319 -5 -360
-9 l-75 -8 101 -2 c87 -1 105 -4 125 -22 17 -14 20 -22 12 -25 -7 -3 -13 -14
-13 -25 0 -14 -7 -19 -26 -19 -22 0 -25 -4 -21 -20 4 -17 2 -20 -13 -15 -10 3
-21 1 -25 -5 -7 -11 -74 -44 -112 -55 -13 -3 -23 -11 -23 -16 0 -5 -11 -9 -25
-9 -14 0 -25 -4 -25 -10 0 -6 39 -10 97 -10 53 0 94 -2 92 -4 -8 -9 -277 -14
-344 -6 l-70 7 85 3 c81 2 83 3 40 12 -25 5 -60 7 -77 4 -18 -3 -33 -3 -33 0
0 2 18 34 40 70 21 35 34 62 28 58 -8 -5 -9 -2 -5 9 4 11 1 17 -8 17 -12 0
-93 -104 -125 -160 -5 -8 -12 -12 -16 -8 -4 4 -1 15 6 24 12 13 11 17 -1 25
-8 5 -19 9 -26 9 -16 0 -56 -57 -48 -70 3 -5 0 -10 -7 -10 -7 0 -23 -3 -35 -6
-22 -6 -21 -3 11 52 19 33 53 84 75 115 23 32 41 64 41 73 0 35 152 66 163 34
3 -10 9 -10 28 -1 28 15 112 18 554 21 211 1 325 -2 315 -8z m1503 -27 c-13
-2 -33 -2 -45 0 -13 2 -3 4 22 4 25 0 35 -2 23 -4z m-177 -63 c38 -33 93 -81
122 -107 54 -46 54 -46 30 -59 -34 -19 -38 -18 -98 37 -63 58 -49 55 23 -4 45
-37 49 -39 65 -23 14 14 14 16 1 16 -23 0 -99 58 -99 75 0 18 -37 38 -57 31
-8 -4 -33 9 -59 30 -41 34 -43 38 -27 50 10 7 21 14 24 14 4 0 38 -27 75 -60z
m-1686 40 c0 -11 -22 -18 -37 -12 -22 7 -14 20 12 20 14 0 25 -4 25 -8z m2150
0 c0 -5 -2 -10 -4 -10 -3 0 -8 5 -11 10 -3 6 -1 10 4 10 6 0 11 -4 11 -10z
m-2751 -120 c-36 -58 -59 -78 -33 -29 26 51 45 79 55 79 5 0 -5 -22 -22 -50z
m-1164 -70 c-3 -5 -35 -10 -71 -10 -36 0 -64 4 -64 10 0 6 30 10 71 10 44 0
68 -4 64 -10z m1758 -27 c-34 -2 -93 -2 -130 0 -37 2 -9 3 62 3 72 0 102 -1
68 -3z m-720 -10 c-7 -2 -19 -2 -25 0 -7 3 -2 5 12 5 14 0 19 -2 13 -5z m692
-34 c-4 -5 -31 -9 -61 -9 -30 0 -54 -4 -54 -10 0 -6 37 -11 88 -11 188 -4
-164 -18 -497 -21 -252 -2 -324 0 -312 9 9 6 16 17 16 25 0 10 30 13 134 15
73 1 136 4 139 8 10 10 553 4 547 -6z m-3290 -179 c-7 -11 -55 -11 -100 0 -23
6 -14 8 38 9 43 1 66 -3 62 -9z m173 3 c-10 -2 -28 -2 -40 0 -13 2 -5 4 17 4
22 1 32 -1 23 -4z m135 0 c-7 -2 -21 -2 -30 0 -10 3 -4 5 12 5 17 0 24 -2 18
-5z m3944 -2 c-37 -3 -71 -11 -75 -18 -13 -22 -103 -21 -125 1 -8 8 -29 16
-48 19 -19 2 45 4 141 4 106 0 148 -2 107 -6z m1881 2 c-10 -2 -26 -2 -35 0
-10 3 -2 5 17 5 19 0 27 -2 18 -5z m245 0 c-7 -2 -19 -2 -25 0 -7 3 -2 5 12 5
14 0 19 -2 13 -5z m167 -2 c-36 -3 -71 -10 -79 -15 -9 -6 -12 -5 -7 2 4 6 -5
12 -21 15 -16 2 17 4 72 4 88 0 92 -1 35 -6z m440 -2 c8 -2 -45 -5 -118 -8
-146 -7 -272 -2 -234 8 23 6 321 6 352 0z m-1177 -6 c-7 -2 -19 -2 -25 0 -7 3
-2 5 12 5 14 0 19 -2 13 -5z m215 0 c-10 -2 -26 -2 -35 0 -10 3 -2 5 17 5 19
0 27 -2 18 -5z m-28 -44 c33 0 34 -1 10 -10 -26 -11 -256 -1 -245 10 10 9 179
17 190 9 5 -5 25 -8 45 -9z m403 -11 c7 -4 -40 -8 -103 -8 -81 0 -111 3 -100
10 17 12 185 9 203 -2z m-6863 -31 c0 -1 -48 -50 -107 -107 l-108 -105 105
108 c97 99 110 112 110 104z m7775 -17 c10 -11 16 -20 13 -20 -3 0 -13 9 -23
20 -10 11 -16 20 -13 20 3 0 13 -9 23 -20z m-7885 -66 c-30 -30 -73 -69 -95
-86 -22 -17 -1 8 47 56 48 47 91 86 95 86 4 0 -17 -25 -47 -56z m-3520 4 c22
-17 47 -43 56 -57 11 -17 -2 -8 -37 23 -30 27 -58 53 -63 58 -6 4 -7 8 -2 8 4
0 25 -14 46 -32z m11555 -38 c38 -38 67 -72 64 -74 -3 -3 -41 28 -85 69 -43
41 -72 74 -64 75 9 0 47 -31 85 -70z m3500 -10 c-38 -38 -74 -70 -79 -70 -6 0
21 32 59 70 38 39 74 70 79 70 6 0 -21 -31 -59 -70z m-3530 -10 c21 -22 37
-40 34 -40 -3 0 -23 18 -44 40 -21 22 -37 40 -34 40 3 0 23 -18 44 -40z
m-11400 -58 c-3 -3 -11 0 -18 7 -9 10 -8 11 6 5 10 -3 15 -9 12 -12z m1172 2
c-3 -3 -12 -4 -19 -1 -8 3 -5 6 6 6 11 1 17 -2 13 -5z m-957 -64 c0 -5 -4 -10
-10 -10 -5 0 -10 5 -10 10 0 6 5 10 10 10 6 0 10 -4 10 -10z m11524 -2 c-3 -4
-12 -8 -20 -8 -8 0 -14 4 -14 8 0 4 9 8 19 8 11 0 17 -4 15 -8z m2796 2 c0 -5
-5 -10 -11 -10 -5 0 -7 5 -4 10 3 6 8 10 11 10 2 0 4 -4 4 -10z m120 0 c0 -5
-4 -10 -9 -10 -6 0 -13 5 -16 10 -3 6 1 10 9 10 9 0 16 -4 16 -10z m-11484
-75 c-11 -8 -25 -15 -30 -15 -6 1 0 7 14 15 32 19 40 18 16 0z m8204 -296 c0
-104 -3 -158 -10 -154 -18 11 -12 315 6 315 2 0 4 -72 4 -161z m2372 34 c51
-20 143 -77 154 -95 6 -11 5 -11 -8 0 -9 7 -27 10 -47 6 -20 -4 -31 -2 -32 5
-1 6 -2 17 -3 24 0 6 -28 26 -61 44 -67 36 -68 42 -3 16z m-12702 -8 c-14 -8
-29 -14 -35 -14 -5 0 1 6 15 14 14 8 30 14 35 14 6 0 -1 -6 -15 -14z m-840
-31 c0 -2 -9 -4 -21 -4 -11 0 -18 4 -14 10 5 8 35 3 35 -6z m-90 -24 c0 -5 -5
-10 -11 -10 -5 0 -7 5 -4 10 3 6 8 10 11 10 2 0 4 -4 4 -10z m829 6 c-10 -9
-69 -36 -69 -32 0 7 52 35 64 36 5 0 7 -2 5 -4z m171 -16 c0 -5 -2 -10 -4 -10
-3 0 -8 5 -11 10 -3 6 -1 10 4 10 6 0 11 -4 11 -10z m-732 -12 c-5 -15 -48
-24 -48 -10 0 14 12 22 33 22 10 0 17 -5 15 -12z m672 -13 c0 -2 -10 -10 -22
-16 -21 -11 -22 -11 -9 4 13 16 31 23 31 12z m12915 -55 c21 -22 37 -40 34
-40 -3 0 -23 18 -44 40 -21 22 -37 40 -34 40 3 0 23 -18 44 -40z m-13419 13
c7 -10 13 -22 14 -28 0 -5 -54 -66 -121 -135 -125 -130 -129 -132 -145 -72 -6
20 11 41 107 136 63 62 118 113 123 114 5 1 15 -6 22 -15z m13788 -99 c61 -64
112 -122 114 -128 1 -6 -4 -20 -11 -30 -14 -19 -15 -19 -48 4 -37 26 -171 161
-196 198 -13 19 -14 27 -3 47 7 14 18 25 23 25 6 0 60 -52 121 -116z m-14309
86 c-3 -5 -11 -10 -16 -10 -6 0 -7 5 -4 10 3 6 11 10 16 10 6 0 7 -4 4 -10z
m519 -161 c-9 -10 -28 -19 -41 -19 -14 0 -23 -6 -23 -15 0 -13 -7 -17 -26 -14
-3 0 -17 -7 -32 -16 -15 -10 9 19 53 64 l80 82 3 -32 c2 -19 -3 -38 -14 -50z
m13712 4 c47 -52 59 -70 37 -55 -48 34 -129 132 -109 132 2 0 34 -35 72 -77z
m-160 15 l29 -33 -32 29 c-31 28 -38 36 -30 36 2 0 16 -15 33 -32z m-13819
-116 l2 -57 -16 48 c-14 42 -14 50 -2 58 8 5 14 9 14 9 0 0 1 -26 2 -58z
m-309 -61 c3 -9 0 -12 -10 -8 -9 3 -21 0 -27 -6 -8 -8 -11 -7 -11 4 0 31 38
39 48 10z m14862 9 c0 -5 -10 -10 -22 -9 -22 0 -22 1 -3 9 11 5 21 9 23 9 1 1
2 -3 2 -9z m-14460 -143 c0 -2 -10 -12 -22 -23 l-23 -19 19 23 c18 21 26 27
26 19z m14370 -67 c0 -5 -2 -10 -4 -10 -3 0 -8 5 -11 10 -3 6 -1 10 4 10 6 0
11 -4 11 -10z m-12159 -123 c-10 -9 -11 -8 -5 6 3 10 9 15 12 12 3 -3 0 -11
-7 -18z m-2513 -153 c-51 -59 -110 -125 -132 -148 l-38 -41 38 50 c39 51 214
245 221 245 2 0 -38 -48 -89 -106z m14643 -31 c13 -16 12 -17 -3 -4 -10 7 -18
15 -18 17 0 8 8 3 21 -13z m-11908 -290 c-7 -2 -21 -2 -30 0 -10 3 -4 5 12 5
17 0 24 -2 18 -5z m9102 -73 c45 -89 45 -105 1 -22 -19 35 -40 69 -46 77 -9
11 -9 15 -1 15 6 0 27 -31 46 -70z m195 -15 c11 -13 4 -15 -54 -15 -78 0 -89
17 -13 23 28 2 53 4 53 5 1 1 7 -5 14 -13z m-720 -8 c0 -1 -30 -32 -67 -67
l-68 -65 65 68 c60 62 70 72 70 64z m-8612 -24 c-3 -15 -16 -18 -73 -20 l-70
-3 35 20 c46 25 113 27 108 3z m39 -8 c-4 -8 -11 -15 -17 -15 -7 0 -7 6 0 21
13 23 26 19 17 -6z m8698 -70 l18 -30 -21 19 c-12 11 -22 26 -22 34 0 17 -1
18 25 -23z m475 -31 c16 -37 30 -70 30 -73 -1 -8 -69 121 -70 132 -1 21 13 0
40 -59z m-9249 -71 c-12 -20 -14 -14 -5 12 4 9 9 14 11 11 3 -2 0 -13 -6 -23z
m8884 -23 c10 -11 16 -20 13 -20 -3 0 -13 9 -23 20 -10 11 -16 20 -13 20 3 0
13 -9 23 -20z m-9125 -181 c69 -12 129 -25 134 -30 6 -5 39 -9 74 -9 50 0 62
-3 54 -12 -8 -10 -41 -11 -134 -7 -67 4 -505 5 -973 2 -467 -3 -846 -2 -842 3
5 5 234 9 510 9 355 1 512 5 537 13 155 52 436 65 640 31z m9940 7 c0 -2 -6
-11 -14 -19 -12 -12 10 -15 166 -20 100 -4 229 -8 287 -9 58 -1 -105 -5 -363
-8 -364 -4 -470 -8 -474 -18 -5 -15 -22 -6 -22 12 0 9 22 15 65 19 36 4 75 12
87 19 13 6 41 15 63 18 50 8 205 12 205 6z m110 -16 c0 -12 -40 -13 -58 -1 -8
5 0 8 23 9 19 1 35 -3 35 -8z m-696 -81 c6 -6 2 -14 -10 -23 -17 -13 -21 -12
-36 1 -28 25 -23 45 10 37 15 -4 31 -10 36 -15z m-8864 7 c0 -20 -16 -36 -36
-36 -23 0 -32 18 -17 33 7 8 53 10 53 3z m-1720 -55 c0 -5 -7 -11 -14 -14 -10
-4 -13 -1 -9 9 6 15 23 19 23 5z m386 -19 c-18 -16 -18 -16 -6 6 6 13 14 21
18 18 3 -4 -2 -14 -12 -24z m13005 6 c11 -21 11 -22 -4 -9 -10 7 -17 17 -17
22 0 15 9 10 21 -13z m-14567 -3 c-6 -16 -24 -21 -24 -7 0 11 11 22 21 22 5 0
6 -7 3 -15z m12236 11 c0 -3 -4 -8 -10 -11 -5 -3 -10 -1 -10 4 0 6 5 11 10 11
6 0 10 -2 10 -4z m980 0 c0 -2 -7 -6 -15 -10 -8 -3 -15 -1 -15 4 0 6 7 10 15
10 8 0 15 -2 15 -4z m-11210 -21 c0 -3 -9 -24 -20 -45 -17 -33 -26 -40 -50
-40 -38 0 -38 11 1 55 26 29 69 48 69 30z m10570 -35 c18 -23 30 -43 28 -46
-3 -2 -13 7 -22 21 -10 15 -26 35 -37 46 -10 10 -15 19 -10 19 5 0 24 -18 41
-40z m105 -3 l29 -32 -34 -3 c-28 -3 -39 2 -57 25 -13 15 -23 34 -23 42 0 23
52 3 85 -32z m2279 -6 l30 -31 -35 0 c-27 0 -40 7 -61 34 -24 30 -26 35 -10
39 23 5 41 -5 76 -42z m-15290 4 c-19 -26 -34 -35 -55 -35 -36 0 -36 6 -2 42
17 18 37 28 55 28 l29 0 -27 -35z m211 10 c-14 -13 -25 -28 -25 -34 0 -13 -33
-23 -53 -15 -14 5 -12 11 11 40 21 26 35 34 59 34 l32 0 -24 -25z m2405 14 c0
-6 -8 -24 -17 -40 -14 -24 -24 -29 -56 -29 l-39 0 17 28 c10 15 24 33 33 40
19 15 62 16 62 1z m10098 -24 l22 -35 -38 0 c-34 0 -40 4 -55 35 l-17 35 33 0
c26 0 37 -7 55 -35z m2356 0 l27 -35 -28 0 c-20 0 -36 10 -56 35 l-28 35 29 0
c22 0 37 -9 56 -35z m-12694 12 c0 -2 -12 -14 -26 -28 -25 -22 -26 -23 -15 -2
9 18 19 26 39 32 1 1 2 0 2 -2z m-1852 -34 c-9 -2 -19 -16 -21 -31 -4 -24 -4
-24 -6 6 -1 27 2 32 22 31 15 -1 17 -3 5 -6z m92 -5 c0 -5 -7 -11 -15 -14 -8
-4 -15 -13 -15 -21 0 -8 -4 -12 -9 -9 -5 4 -8 14 -6 24 2 9 4 20 4 24 1 10 41
5 41 -4z m70 2 c0 -5 -7 -7 -15 -4 -10 4 -15 0 -15 -12 0 -9 -3 -15 -6 -11
-11 10 4 37 21 37 8 0 15 -4 15 -10z m13857 4 c-3 -3 -12 -4 -19 -1 -8 3 -5 6
6 6 11 1 17 -2 13 -5z m88 -11 c5 -14 3 -15 -6 -6 -6 6 -18 9 -25 6 -8 -3 -14
0 -14 6 0 18 37 13 45 -6z m75 8 c0 -5 -9 -7 -20 -4 -11 3 -20 7 -20 9 0 2 9
4 20 4 11 0 20 -4 20 -9z m-14026 -36 c-4 -8 -11 -15 -16 -15 -6 0 -5 6 2 15
7 8 14 15 16 15 2 0 1 -7 -2 -15z m-226 -96 c-10 -5 -18 -15 -18 -20 0 -6 5
-7 11 -3 7 4 10 -1 7 -11 -4 -26 -28 -31 -28 -7 0 32 11 52 29 52 14 -1 14 -2
-1 -11z m75 -9 c-5 -19 -23 -29 -23 -12 0 7 20 32 26 32 1 0 0 -9 -3 -20z
m14244 -37 c-3 -3 -10 -2 -16 2 -7 4 -7 10 2 20 10 11 13 11 15 -2 2 -8 1 -17
-1 -20z m-14157 23 c0 -3 -4 -8 -10 -11 -5 -3 -10 -1 -10 4 0 6 5 11 10 11 6
0 10 -2 10 -4z m-181 -95 c9 -6 10 -11 2 -15 -13 -8 -31 1 -31 15 0 11 11 11
29 0z m1954 -228 c-7 -2 -19 -2 -25 0 -7 3 -2 5 12 5 14 0 19 -2 13 -5z m-243
-13 c0 -5 -16 -10 -36 -10 -21 0 -33 4 -29 10 3 6 19 10 36 10 16 0 29 -4 29
-10z m10770 0 c0 -5 -13 -10 -29 -10 -17 0 -33 5 -36 10 -4 6 8 10 29 10 20 0
36 -4 36 -10z m290 0 c0 -5 -14 -7 -32 -3 -46 8 -48 13 -5 13 21 0 37 -4 37
-10z m-12895 -49 c-3 -6 -11 -11 -17 -11 -6 0 -6 6 2 15 14 17 26 13 15 -4z
m-455 -1 c0 -5 -5 -10 -11 -10 -5 0 -7 5 -4 10 3 6 8 10 11 10 2 0 4 -4 4 -10z
m3040 -25 c0 -8 -9 -19 -20 -25 -23 -12 -25 -7 -10 21 13 22 30 25 30 4z
m9484 -1 c9 -24 7 -28 -9 -14 -17 14 -20 30 -6 30 5 0 12 -7 15 -16z m-9633
-66 c11 -21 11 -22 -4 -9 -10 7 -17 17 -17 22 0 15 9 10 21 -13z m9757 2 c-7
-10 -14 -18 -15 -16 -6 6 9 36 18 36 5 0 4 -9 -3 -20z m-7829 -106 c2 -2 -243
-3 -545 -2 -379 2 -481 4 -329 8 222 5 866 1 874 -6z m6970 0 c2 -2 -216 -4
-485 -4 -331 0 -484 4 -474 10 14 10 949 4 959 -6z"/>
<path d="M11635 7520 c-3 -5 -1 -10 4 -10 6 0 11 5 11 10 0 6 -2 10 -4 10 -3
0 -8 -4 -11 -10z"/>
<path d="M5233 3683 c9 -2 25 -2 35 0 9 3 1 5 -18 5 -19 0 -27 -2 -17 -5z"/>
<path d="M6617 3673 c-26 -26 78 -45 128 -23 16 7 10 9 -25 11 -25 1 -53 2
-62 1 -10 -1 -18 3 -18 8 0 11 -13 13 -23 3z"/>
<path d="M6810 3665 c-7 -8 -8 -15 -2 -15 5 0 15 7 22 15 7 8 8 15 2 15 -5 0
-15 -7 -22 -15z"/>
<path d="M7431 3666 c-9 -11 5 -14 82 -19 50 -3 115 -2 142 3 l50 7 -47 2
c-26 0 -50 6 -53 11 -10 16 -160 13 -174 -4z"/>
<path d="M6360 3661 c-14 -5 -54 -10 -90 -12 l-65 -2 65 -7 c36 -4 126 -4 200
-1 115 5 126 7 75 12 -33 4 -82 9 -110 12 -27 3 -61 2 -75 -2z"/>
<path d="M7015 3661 l-60 -6 79 -7 c107 -11 198 -9 170 2 -32 13 -122 18 -189
11z"/>
<path d="M9078 3633 c7 -3 16 -2 19 1 4 3 -2 6 -13 5 -11 0 -14 -3 -6 -6z"/>
<path d="M11643 4270 c0 -25 2 -35 4 -22 2 12 2 32 0 45 -2 12 -4 2 -4 -23z"/>
<path d="M11636 4211 c-4 -7 -5 -15 -2 -18 9 -9 19 4 14 18 -4 11 -6 11 -12 0z"/>
<path d="M11630 3956 c0 -66 4 -117 10 -121 6 -4 10 37 10 114 0 74 -4 121
-10 121 -6 0 -10 -45 -10 -114z"/>
<path d="M7117 4113 c-12 -12 -7 -22 8 -17 8 4 15 10 15 15 0 11 -14 12 -23 2z"/>
<path d="M7248 4111 c-31 -3 -63 -12 -70 -20 -11 -11 -9 -13 12 -7 14 3 80 9
148 13 67 3 122 10 122 15 0 9 -123 9 -212 -1z"/>
<path d="M7032 4078 c-14 -14 -16 -28 -3 -28 9 0 24 30 18 36 -2 2 -9 -2 -15
-8z"/>
<path d="M7480 4070 c20 -13 33 -13 25 0 -3 6 -14 10 -23 10 -15 0 -15 -2 -2
-10z"/>
<path d="M9320 4124 c0 -8 32 -33 43 -34 5 0 5 4 2 10 -8 13 -45 33 -45 24z"/>
<path d="M817 2703 c-12 -11 -8 -23 8 -23 8 0 15 7 15 15 0 16 -12 20 -23 8z"/>
<path d="M14740 2730 c0 -5 5 -10 10 -10 6 0 10 5 10 10 0 6 -4 10 -10 10 -5
0 -10 -4 -10 -10z"/>
<path d="M14800 2674 c0 -8 5 -12 10 -9 6 4 8 11 5 16 -9 14 -15 11 -15 -7z"/>
<path d="M2685 1230 c-4 -6 5 -10 19 -10 14 0 26 5 26 10 0 6 -9 10 -19 10
-11 0 -23 -4 -26 -10z"/>
<path d="M2605 1220 c-3 -5 -1 -10 4 -10 6 0 11 5 11 10 0 6 -2 10 -4 10 -3 0
-8 -4 -11 -10z"/>
<path d="M2965 1200 c4 -6 11 -8 16 -5 14 9 11 15 -7 15 -8 0 -12 -5 -9 -10z"/>
</g>
</svg>
